<?xml version="1.0" encoding="utf-8"?>
<!-- Generator: Adobe Illustrator 25.2.0, SVG Export Plug-In . SVG Version: 6.00 Build 0)  -->
<svg version="1.1" id="Calque_1" xmlns="http://www.w3.org/2000/svg" xmlns:xlink="http://www.w3.org/1999/xlink" x="0px" y="0px"
	 viewBox="0 0 396 200" style="enable-background:new 0 0 396 200;" xml:space="preserve">
<style type="text/css">
	.st0{fill:none;stroke:#000000;stroke-width:5;stroke-miterlimit:10;}
	.st1{fill:none;stroke:#000000;stroke-width:3;stroke-miterlimit:10;}
</style>
<g>
	<line class="st0" x1="13" y1="24.5" x2="383" y2="24.5"/>
</g>
<g>
	<line class="st0" x1="15.5" y1="176" x2="15.5" y2="24"/>
</g>
<g>
	<line class="st0" x1="380.5" y1="176" x2="380.5" y2="24"/>
</g>
<g>
	<line class="st0" x1="13" y1="175.5" x2="383" y2="175.5"/>
</g>
<g>
	<line class="st1" x1="24" y1="35.4" x2="372" y2="35.4"/>
</g>
<g>
	<line class="st1" x1="25.5" y1="157" x2="25.5" y2="35"/>
</g>
<g>
	<line class="st1" x1="370.5" y1="157" x2="370.5" y2="35"/>
</g>
<g>
	<line class="st1" x1="24" y1="156.6" x2="372" y2="156.6"/>
</g>
<line class="st1" x1="15" y1="175" x2="25.5" y2="157.5"/>
<line class="st1" x1="14.5" y1="23.5" x2="25.5" y2="35.5"/>
<line class="st1" x1="381.5" y1="23.5" x2="370.5" y2="35.5"/>
<line class="st1" x1="380.37" y1="175.47" x2="369.5" y2="155.5"/>
<g>
	<path d="M31.6,113.42l14.63-2.81c0,1.45,0.03,2.73,0.08,3.84c0.05,1.11,0.19,2.32,0.42,3.63c0.22,1.31,0.53,2.38,0.91,3.21
		c0.38,0.83,0.92,1.53,1.63,2.1c0.7,0.57,1.53,0.85,2.48,0.85c2.85,0,4.28-1.82,4.28-5.47c0-4.99-2.81-9.96-8.44-14.9l-4.48-3.81
		c-1.43-1.19-2.56-2.18-3.41-2.97c-0.85-0.79-1.84-1.86-2.99-3.21c-1.15-1.35-2.05-2.65-2.7-3.9c-0.65-1.25-1.2-2.77-1.66-4.54
		c-0.46-1.77-0.69-3.65-0.69-5.63c0-5.79,1.84-10.36,5.51-13.73c3.67-3.37,8.55-5.05,14.63-5.05c5.05,0,9.34,1.8,12.88,5.39
		c3.54,3.59,5.31,7.93,5.31,13l-0.04,0.52c0,0.34,0,0.74,0,1.19l-14.9,2.06c0-0.29,0.02-0.75,0.06-1.37
		c0.04-0.62,0.06-1.13,0.06-1.53c0-0.95-0.07-1.86-0.2-2.73c-0.13-0.87-0.35-1.74-0.65-2.62c-0.3-0.87-0.77-1.57-1.41-2.08
		c-0.63-0.52-1.4-0.77-2.3-0.77c-1.59,0-2.77,0.62-3.57,1.86c-0.79,1.24-1.19,2.71-1.19,4.4c0,1.48,0.23,2.87,0.69,4.16
		c0.46,1.29,1.16,2.5,2.1,3.63c0.94,1.12,1.8,2.06,2.6,2.79c0.79,0.74,1.85,1.64,3.17,2.72c1.32,1.07,2.26,1.86,2.81,2.36
		c2.03,1.8,3.75,3.48,5.15,5.05c1.4,1.57,2.72,3.35,3.96,5.33c1.24,1.98,2.17,4.12,2.79,6.42c0.62,2.3,0.93,4.78,0.93,7.45
		c0,4.99-1.78,9.08-5.35,12.27c-3.57,3.18-7.9,4.78-13,4.78c-3.3,0-6.24-0.61-8.8-1.82c-2.56-1.22-4.63-2.87-6.2-4.95
		c-1.57-2.09-2.78-4.4-3.63-6.94C32.22,119.05,31.73,116.32,31.6,113.42z"/>
	<path d="M75.79,133.83V62.48h17.24c6.21,0,10.73,1.73,13.56,5.19c2.83,3.46,4.24,8.47,4.24,15.02c0,3.22-0.31,6.02-0.93,8.4
		c-0.62,2.38-1.49,4.34-2.6,5.89c-1.11,1.55-2.54,2.79-4.28,3.73c-1.74,0.94-3.63,1.6-5.67,1.98c-2.04,0.38-4.39,0.59-7.06,0.61
		v30.52H75.79z M90.34,93.12c0.77,0,1.45-0.05,2.04-0.14c0.59-0.09,1.12-0.2,1.57-0.32c0.45-0.12,0.85-0.34,1.19-0.65
		c0.34-0.32,0.63-0.59,0.85-0.83c0.22-0.24,0.42-0.63,0.57-1.17c0.16-0.54,0.28-0.98,0.36-1.33c0.08-0.34,0.14-0.9,0.18-1.66
		c0.04-0.77,0.06-1.38,0.06-1.84c0-0.46,0-1.18,0-2.16c0-0.26,0-0.46,0-0.59c0-1.03-0.01-1.81-0.02-2.34
		c-0.01-0.53-0.06-1.2-0.14-2.02c-0.08-0.82-0.2-1.43-0.38-1.84c-0.17-0.41-0.42-0.88-0.75-1.41c-0.33-0.53-0.73-0.91-1.21-1.15
		c-0.48-0.24-1.08-0.45-1.8-0.63c-0.73-0.18-1.57-0.28-2.52-0.28V93.12z"/>
	<path d="M108.49,133.83l15.42-71.35h12.76l15.38,71.35h-14.23l-2.93-15.26h-9.31l-2.77,15.26H108.49z M126.57,109.69h7.37
		l-3.61-26.48L126.57,109.69z"/>
	<path d="M155.26,110.01V86.39c0-16.86,6.9-25.29,20.69-25.29c2.91,0,5.49,0.39,7.75,1.17c2.26,0.78,4.16,1.86,5.69,3.23
		c1.53,1.37,2.79,3.07,3.79,5.07c0.99,2.01,1.7,4.19,2.14,6.54c0.44,2.35,0.65,4.94,0.65,7.77v6.14h-14.19v-6.58
		c0-1.29-0.03-2.41-0.08-3.35c-0.05-0.94-0.19-2.01-0.42-3.21c-0.22-1.2-0.53-2.18-0.91-2.93c-0.38-0.75-0.95-1.39-1.7-1.92
		c-0.75-0.53-1.66-0.79-2.72-0.79c-4.18,0-6.26,3.51-6.26,10.54v30.8c0,7,2.09,10.5,6.26,10.5c1.24,0,2.29-0.36,3.13-1.07
		c0.85-0.71,1.45-1.72,1.82-3.03c0.37-1.31,0.62-2.59,0.75-3.84c0.13-1.25,0.2-2.69,0.2-4.3v-7.33h14.11v6.02
		c-0.05,2.72-0.28,5.23-0.67,7.53s-1.07,4.53-2.02,6.7c-0.95,2.17-2.16,4-3.63,5.49c-1.47,1.49-3.36,2.7-5.69,3.61
		c-2.33,0.91-4.99,1.37-8.01,1.37c-3.09,0-5.83-0.44-8.22-1.33c-2.39-0.89-4.36-2.07-5.91-3.57c-1.55-1.49-2.82-3.33-3.82-5.51
		c-1-2.18-1.71-4.47-2.12-6.88C155.47,115.53,155.26,112.89,155.26,110.01z"/>
	<path d="M202.71,133.83V62.48h29.77v9.91h-15.34v19.42H228v10.15h-10.86v21.96h15.34v9.91H202.71z"/>
	<path d="M237.63,133.83V62.48h14.71c2.64,0,4.97,0.14,7,0.42s4,0.82,5.95,1.63c1.94,0.81,3.54,1.88,4.8,3.23
		c1.26,1.35,2.26,3.13,3.01,5.33c0.75,2.21,1.13,4.82,1.13,7.83c0,3.73-0.88,6.66-2.64,8.8c-1.76,2.14-4.49,3.83-8.18,5.07
		c8.48,2.06,12.72,8.06,12.72,17.99c0,7.16-1.72,12.46-5.15,15.89c-3.44,3.44-8.68,5.15-15.74,5.15H237.63z M251.98,90.55h2.46
		c1.32,0,2.43-0.25,3.33-0.75c0.9-0.5,1.58-1.23,2.04-2.2c0.46-0.96,0.79-2,0.97-3.11s0.28-2.42,0.28-3.92
		c0-1.19-0.09-2.23-0.26-3.13c-0.17-0.9-0.36-1.64-0.57-2.24c-0.21-0.59-0.57-1.1-1.07-1.51c-0.5-0.41-0.94-0.71-1.33-0.91
		s-0.96-0.34-1.74-0.44c-0.78-0.09-1.41-0.14-1.88-0.16c-0.48-0.01-1.22-0.02-2.22-0.02V90.55z M252.05,123.64h1.35
		c1.88,0,3.4-0.22,4.56-0.65c1.16-0.44,2.05-1.18,2.66-2.24c0.61-1.06,1.01-2.25,1.21-3.59c0.2-1.33,0.3-3.12,0.3-5.37
		c0-3.73-0.65-6.62-1.96-8.68c-1.31-2.06-3.53-3.09-6.68-3.09h-1.43V123.64z"/>
	<path d="M278.93,133.83l15.42-71.35h12.76l15.38,71.35h-14.23l-2.93-15.26h-9.31l-2.77,15.26H278.93z M297,109.69h7.37l-3.61-26.48
		L297,109.69z"/>
	<path d="M327.09,133.83V62.48h15.7c3.57,0,6.71,0.34,9.41,1.01c2.71,0.67,5.08,1.73,7.11,3.17c2.03,1.44,3.58,3.38,4.64,5.83
		c1.06,2.44,1.59,5.37,1.59,8.78c0,1.48-0.05,2.8-0.16,3.96c-0.11,1.16-0.35,2.49-0.73,3.98c-0.38,1.49-0.91,2.81-1.57,3.96
		c-0.66,1.15-1.61,2.28-2.85,3.39c-1.24,1.11-2.71,2.04-4.4,2.77c4.28,13.58,8.01,25.08,11.18,34.48h-14.94l-8.17-32.86h-2.38v32.86
		H327.09z M341.51,92.17h4.12c1.11,0,2.06-0.37,2.85-1.11c0.79-0.74,1.37-1.68,1.72-2.81c0.36-1.14,0.61-2.18,0.75-3.13
		c0.15-0.95,0.22-1.85,0.22-2.7c0-0.85-0.06-1.72-0.18-2.62c-0.12-0.9-0.33-1.9-0.63-2.99c-0.3-1.1-0.81-2-1.51-2.7
		c-0.7-0.7-1.55-1.05-2.56-1.05h-4.8V92.17z"/>
</g>
</svg>
